<svg width="22" height="28" viewBox="0 0 22 28" fill="none" xmlns="http://www.w3.org/2000/svg">
<path d="M10.9999 1.52588e-05C8.08353 0.00340556 5.28763 1.14652 3.22548 3.1786C1.16333 5.21068 0.00329577 7.9658 -0.0001447 10.8396C-0.00363759 13.1881 0.774836 15.4728 2.21586 17.3433C2.21586 17.3433 2.51586 17.7326 2.56486 17.7888L10.9999 27.5917L19.4389 17.7838C19.4829 17.7316 19.7839 17.3433 19.7839 17.3433L19.7849 17.3404C21.2252 15.4707 22.0033 13.187 21.9999 10.8396C21.9964 7.9658 20.8364 5.21068 18.7742 3.1786C16.7121 1.14652 13.9162 0.00340556 10.9999 1.52588e-05ZM10.9999 14.7813C10.2087 14.7813 9.43537 14.5501 8.77757 14.117C8.11978 13.6839 7.60709 13.0683 7.30434 12.348C7.00159 11.6278 6.92237 10.8352 7.07671 10.0706C7.23105 9.30601 7.61202 8.60367 8.17143 8.05242C8.73084 7.50117 9.44357 7.12576 10.2195 6.97367C10.9954 6.82158 11.7997 6.89964 12.5306 7.19797C13.2615 7.49631 13.8862 8.00152 14.3257 8.64973C14.7653 9.29793 14.9999 10.06 14.9999 10.8396C14.9985 11.8846 14.5767 12.8864 13.8268 13.6253C13.077 14.3643 12.0603 14.78 10.9999 14.7813Z" fill="black"/>
</svg>
